<?xml version="1.0" standalone="no"?>
<!DOCTYPE svg PUBLIC "-//W3C//DTD SVG 20010904//EN"
 "http://www.w3.org/TR/2001/REC-SVG-20010904/DTD/svg10.dtd">
<svg version="1.0" xmlns="http://www.w3.org/2000/svg"
 width="500.000000pt" height="500.000000pt" viewBox="0 0 500.000000 500.000000"
 preserveAspectRatio="xMidYMid meet">

<g transform="translate(0.000000,500.000000) scale(0.100000,-0.100000)"
fill="#000000" stroke="none">
<path d="M0 3915 l0 -1084 25 24 24 25 381 0 c378 0 411 -3 432 -34 4 -6 8
-127 8 -268 0 -315 17 -288 -187 -288 -93 0 -143 -4 -143 -10 0 -17 30 -73 53
-98 11 -12 32 -22 46 -22 33 0 56 -14 47 -29 -5 -8 -83 -11 -252 -11 -228 0
-245 1 -242 18 3 16 8 18 55 21 23 1 74 64 87 109 l7 22 -146 0 c-142 0 -147
1 -170 25 l-25 24 0 -1169 0 -1170 2500 0 2500 0 0 2500 0 2500 -2500 0 -2500
0 0 -1085z m1144 -1057 c8 -13 29 -59 46 -103 18 -44 41 -101 51 -127 l19 -48
-29 0 c-28 0 -31 5 -73 110 -23 60 -46 110 -49 110 -7 0 -39 -80 -39 -98 0 -7
11 -12 25 -12 14 0 25 -4 25 -9 0 -5 3 -16 6 -25 5 -13 -2 -16 -40 -16 -43 0
-48 -2 -57 -30 -9 -24 -17 -30 -41 -30 -20 0 -28 4 -25 13 109 275 115 287
148 287 10 0 25 -10 33 -22z m413 -12 c21 -24 23 -37 23 -122 0 -87 -2 -97
-25 -119 -22 -23 -32 -25 -113 -25 -55 0 -92 4 -100 12 -8 8 -12 53 -12 134 0
157 1 158 118 152 78 -4 87 -7 109 -32z m153 -26 l0 -60 70 0 69 0 3 58 c3 49
6 57 23 57 19 0 20 -8 23 -147 l3 -148 -26 0 c-24 0 -25 2 -25 60 l0 60 -70 0
-70 0 0 -60 c0 -57 -1 -60 -25 -60 l-25 0 0 143 c0 79 3 147 7 150 3 4 15 7
25 7 15 0 18 -8 18 -60z m437 52 c12 -7 123 -264 123 -284 0 -5 -12 -8 -27 -6
-24 3 -32 15 -70 108 -24 57 -46 106 -48 108 -4 4 -26 -45 -39 -86 -6 -17 -2
-21 21 -24 20 -2 29 -9 31 -25 3 -21 -1 -23 -40 -23 -39 0 -45 -3 -55 -30 -9
-23 -18 -30 -37 -30 -14 0 -26 4 -26 10 0 5 23 67 51 137 56 144 77 170 116
145z m280 0 c7 -4 29 -48 48 -97 20 -50 38 -91 39 -92 1 -2 20 40 40 92 40
101 60 119 105 95 20 -10 21 -19 21 -150 l0 -140 -25 0 c-24 0 -24 0 -27 113
l-3 112 -38 -93 c-31 -73 -44 -93 -63 -98 -35 -9 -47 6 -85 104 l-34 87 -3
-112 c-3 -113 -3 -113 -27 -113 l-25 0 0 138 c0 94 4 142 12 150 14 14 47 16
65 4z m581 -54 l3 -58 69 0 70 0 0 61 c0 57 1 60 23 57 22 -3 22 -6 25 -150
l3 -148 -26 0 c-24 0 -25 2 -25 60 l0 60 -70 0 -70 0 0 -60 c0 -57 -1 -60 -25
-60 l-25 0 0 151 c0 150 0 150 23 147 19 -3 22 -10 25 -60z m505 34 c39 -40
37 -212 -4 -253 -15 -15 -33 -19 -94 -19 -93 0 -122 12 -135 59 -13 48 -12
138 3 181 17 49 47 62 135 57 58 -3 78 -8 95 -25z m322 -2 c0 -24 -2 -25 -82
-28 l-83 -3 0 -29 0 -30 63 0 c89 0 107 -15 107 -90 0 -85 -9 -91 -129 -88
-90 3 -96 4 -99 25 -3 21 0 22 85 25 l88 3 3 33 3 32 -58 0 c-32 0 -68 3 -80
6 -28 8 -47 63 -39 109 10 54 37 66 136 63 83 -3 85 -4 85 -28z m305 0 l0 -30
-79 0 c-61 0 -80 -3 -85 -15 -13 -34 4 -45 70 -45 82 0 104 -18 104 -88 0 -27
-7 -57 -16 -70 -14 -20 -23 -22 -115 -22 -99 0 -99 0 -99 25 0 24 2 24 88 27
l87 3 3 31 3 32 -76 4 c-88 4 -105 17 -105 79 0 50 15 86 37 92 10 3 55 5 101
6 l82 1 0 -30z m257 22 c11 -7 123 -266 123 -284 0 -5 -12 -8 -27 -8 -26 0
-31 8 -73 116 l-45 115 -16 -38 c-33 -75 -33 -81 -2 -85 20 -2 29 -9 31 -25 3
-21 -1 -23 -40 -23 -39 0 -45 -3 -55 -30 -9 -23 -18 -30 -37 -30 -14 0 -26 4
-26 10 0 15 100 263 112 278 12 14 37 16 55 4z m251 -144 l3 -148 -26 0 -25 0
0 151 c0 150 0 150 23 147 22 -3 22 -6 25 -150z m164 135 c8 -10 39 -63 69
-117 l54 -99 5 114 c5 106 6 114 25 114 19 0 20 -7 20 -145 l0 -145 -39 0 -39
0 -61 108 -61 108 -3 -110 c-3 -111 -3 -111 -27 -111 l-25 0 0 144 c0 106 3
146 13 149 26 11 54 6 69 -10z m-3032 -663 c4 0 17 23 30 50 13 28 26 50 30
50 4 0 17 -22 30 -50 13 -27 26 -50 30 -50 4 0 17 22 30 50 13 27 25 48 28 46
5 -6 -49 -126 -58 -126 -3 0 -17 23 -30 50 -13 28 -26 50 -30 50 -4 0 -17 -22
-30 -50 -13 -27 -27 -50 -30 -50 -8 0 -60 112 -59 126 0 5 12 -15 27 -43 14
-29 29 -53 32 -53z m428 93 c-75 -4 -78 -5 -78 -28 0 -24 3 -25 68 -27 l67 -2
-67 -3 c-64 -4 -68 -5 -68 -28 0 -23 3 -24 78 -28 l77 -3 -82 -2 -83 -2 0 65
0 65 83 -2 82 -2 -77 -3z m387 -58 l0 -60 -77 -3 -78 -3 0 66 0 66 78 -3 77
-3 0 -60z m503 53 c15 -15 16 -72 2 -99 -9 -16 -22 -19 -80 -19 l-70 0 0 65 0
65 68 0 c40 0 73 -5 80 -12z m255 5 c-70 -4 -73 -5 -73 -28 0 -24 3 -25 68
-27 l67 -2 -67 -3 c-64 -4 -68 -5 -68 -28 0 -23 3 -24 78 -28 l77 -3 -82 -2
-83 -2 0 65 0 65 78 -2 77 -2 -72 -3z m278 -49 l36 -56 39 56 c22 31 42 56 47
56 8 0 -75 -129 -84 -130 -6 0 -19 18 -73 103 -10 15 -14 27 -10 27 5 0 25
-25 45 -56z"/>
<path d="M1390 2725 l0 -95 51 0 c80 0 89 9 89 90 0 99 -1 100 -76 100 l-64 0
0 -95z"/>
<path d="M3337 2813 c-12 -12 -8 -158 5 -171 13 -13 106 -16 125 -4 13 8 21
152 9 171 -8 12 -128 16 -139 4z"/>
<path d="M2450 2265 c0 -26 1 -26 68 -23 61 3 67 5 70 26 3 21 0 22 -67 22
-69 0 -71 -1 -71 -25z"/>
<path d="M2450 2205 c0 -26 1 -26 68 -23 61 3 67 5 70 26 3 21 0 22 -67 22
-69 0 -71 -1 -71 -25z"/>
<path d="M2960 2235 l0 -55 60 0 c64 0 80 12 80 62 0 37 -19 48 -82 48 l-58 0
0 -55z"/>
<path d="M52 2828 c-8 -8 -12 -67 -12 -200 l0 -188 398 2 397 3 3 178 c1 111
-1 185 -8 197 -10 19 -22 20 -388 20 -281 0 -381 -3 -390 -12z m446 -65 c29
-31 28 -39 -7 -74 -29 -28 -81 -40 -81 -18 0 5 -5 7 -10 4 -15 -9 -40 56 -29
77 28 53 84 58 127 11z m-248 -28 c0 -50 -21 -70 -64 -59 -19 4 -25 13 -28 44
-5 55 -1 60 48 60 l44 0 0 -45z m475 24 c4 -5 1 -9 -6 -9 -10 0 -10 -3 -1 -12
7 -7 12 -17 12 -24 0 -15 -28 -26 -43 -17 -7 4 -4 9 8 13 16 6 17 7 2 13 -11
4 -18 -1 -22 -14 -4 -10 -13 -19 -21 -19 -16 0 -19 16 -4 25 6 3 10 16 10 29
0 19 6 23 30 24 16 0 32 -4 35 -9z m-348 -236 c-3 -10 -5 -2 -5 17 0 19 2 27
5 18 2 -10 2 -26 0 -35z m-165 22 c0 -5 -5 -11 -11 -13 -6 -2 -11 4 -11 13 0
9 5 15 11 13 6 -2 11 -8 11 -13z m205 0 c0 -8 -4 -12 -9 -9 -5 3 -6 10 -3 15
9 13 12 11 12 -6z m58 6 c3 -5 2 -12 -3 -15 -5 -3 -9 1 -9 9 0 17 3 19 12 6z
m192 -33 c-3 -7 -5 -2 -5 12 0 14 2 19 5 13 2 -7 2 -19 0 -25z m50 12 c3 -10
2 -11 -4 -4 -4 6 -15 14 -23 17 -11 5 -9 6 4 4 11 -1 21 -9 23 -17z"/>
<path d="M382 2740 c0 -14 2 -19 5 -12 2 6 2 18 0 25 -3 6 -5 1 -5 -13z"/>
<path d="M193 2723 c9 -2 23 -2 30 0 6 3 -1 5 -18 5 -16 0 -22 -2 -12 -5z"/>
<path d="M40 2371 c0 -17 5 -33 11 -36 6 -4 180 -7 387 -7 349 0 377 1 389 18
7 10 13 26 13 36 0 17 -21 18 -400 18 l-400 0 0 -29z m413 -6 c1 -5 -6 -11
-15 -13 -11 -2 -18 3 -18 13 0 17 30 18 33 0z"/>
<path d="M377 2283 c-2 -5 -7 -21 -11 -37 -4 -17 -16 -42 -27 -58 l-20 -28
115 0 c64 0 116 3 116 6 0 3 -9 19 -20 34 -11 16 -23 42 -26 59 -6 30 -8 31
-65 31 -32 0 -60 -3 -62 -7z"/>
</g>
</svg>
