<?xml version="1.0" standalone="no"?>
<!DOCTYPE svg PUBLIC "-//W3C//DTD SVG 20010904//EN"
 "http://www.w3.org/TR/2001/REC-SVG-20010904/DTD/svg10.dtd">
<svg version="1.0" xmlns="http://www.w3.org/2000/svg"
 width="500.000000pt" height="500.000000pt" viewBox="0 0 500.000000 500.000000"
 preserveAspectRatio="xMidYMid meet">

<g transform="translate(0.000000,500.000000) scale(0.100000,-0.100000)"
fill="#000000" stroke="none">
<path d="M1134 2931 c-36 -22 -74 -79 -74 -111 0 -13 18 -40 44 -66 61 -61 98
-61 155 1 49 53 53 89 16 133 -22 27 -80 62 -102 62 -4 0 -22 -9 -39 -19z m34
-98 c-3 -44 -5 -48 -30 -51 -16 -2 -28 1 -28 7 0 6 7 11 15 11 11 0 15 11 15
40 0 30 4 40 16 40 12 0 14 -10 12 -47z m72 31 c0 -10 -6 -14 -15 -10 -21 8
-19 -3 6 -22 28 -23 16 -52 -21 -52 -27 0 -29 2 -28 43 0 23 5 45 12 49 20 13
46 9 46 -8z"/>
<path d="M450 2924 c-33 -22 -67 -65 -75 -96 -12 -49 93 -137 147 -123 45 12
108 82 108 121 0 27 -42 79 -81 99 -36 19 -68 19 -99 -1z m116 -96 c-4 -34
-10 -66 -12 -70 -8 -13 -89 -9 -102 4 -7 7 -12 29 -12 49 0 21 -5 39 -12 41
-6 2 -9 12 -5 21 5 14 20 17 78 17 l72 0 -7 -62z"/>
<path d="M467 2840 c4 -15 13 -20 37 -19 30 2 30 2 4 6 -16 2 -28 11 -28 19 0
8 -4 14 -9 14 -5 0 -7 -9 -4 -20z"/>
<path d="M520 2799 c0 -7 -10 -9 -25 -7 -14 3 -25 1 -25 -3 0 -5 14 -9 30 -9
20 0 30 5 30 15 0 8 -2 15 -5 15 -3 0 -5 -5 -5 -11z"/>
</g>
</svg>
