<?xml version="1.0" standalone="no"?>
<!DOCTYPE svg PUBLIC "-//W3C//DTD SVG 20010904//EN"
 "http://www.w3.org/TR/2001/REC-SVG-20010904/DTD/svg10.dtd">
<svg version="1.0" xmlns="http://www.w3.org/2000/svg"
 width="500.000000pt" height="500.000000pt" viewBox="0 0 500.000000 500.000000"
 preserveAspectRatio="xMidYMid meet">

<g transform="translate(0.000000,500.000000) scale(0.100000,-0.100000)"
fill="#000000" stroke="none">
<path d="M0 2500 l0 -2500 2500 0 2500 0 0 2500 0 2500 -2500 0 -2500 0 0
-2500z m1421 502 l29 -32 0 -350 0 -350 -29 -32 -29 -33 -210 -3 -211 -3 17
-46 c9 -25 37 -68 60 -95 40 -43 48 -48 87 -48 27 0 45 -5 48 -13 14 -36 -3
-37 -354 -35 -336 3 -344 3 -344 23 0 17 8 20 47 23 41 3 52 8 84 45 36 41 73
110 74 135 0 9 -45 12 -190 12 -206 0 -247 8 -272 52 -10 18 -13 99 -13 368 0
385 1 389 68 409 19 6 252 9 570 8 l539 -2 29 -33z m248 -346 c12 -15 91 -204
91 -218 0 -5 -9 -8 -21 -6 -16 2 -29 24 -57 91 -33 82 -37 86 -48 65 -25 -50
-27 -68 -5 -68 12 0 21 -2 21 -4 0 -2 3 -11 6 -20 5 -13 -1 -16 -30 -16 -30 0
-38 -5 -46 -25 -9 -24 -50 -37 -50 -15 0 9 77 206 86 222 8 13 41 9 53 -6z
m336 -9 c33 -45 25 -177 -11 -204 -27 -20 -160 -17 -168 3 -12 30 -7 199 7
213 19 20 155 11 172 -12z m125 -27 l0 -50 55 0 55 0 0 50 c0 43 3 50 20 50
19 0 20 -7 20 -120 0 -113 -1 -120 -20 -120 -17 0 -20 7 -20 50 l0 50 -55 0
-55 0 0 -50 c0 -43 -3 -50 -20 -50 -19 0 -20 7 -20 120 0 113 1 120 20 120 17
0 20 -7 20 -50z m358 38 c10 -12 92 -212 92 -224 0 -3 -10 -4 -22 -2 -18 2
-30 21 -59 92 l-37 90 -16 -38 c-21 -50 -20 -56 4 -56 11 0 20 -2 20 -4 0 -2
3 -11 6 -20 5 -13 -1 -16 -30 -16 -29 0 -39 -5 -48 -25 -7 -16 -19 -25 -34
-25 l-24 0 19 48 c11 26 29 71 40 101 12 30 26 62 32 72 11 22 42 25 57 7z
m251 -60 c14 -36 29 -69 32 -73 4 -3 20 27 36 67 24 61 33 73 54 76 43 5 50
-16 47 -129 -3 -96 -4 -104 -23 -104 -18 0 -21 8 -25 80 l-5 80 -25 -65 c-24
-60 -28 -65 -55 -65 -28 0 -32 6 -60 74 l-30 74 -3 -91 c-2 -84 -5 -92 -22
-92 -19 0 -20 7 -20 113 0 63 3 117 7 121 4 4 20 6 36 4 26 -3 32 -11 56 -70z
m431 22 l0 -50 54 0 55 0 3 48 c3 39 6 47 23 47 19 0 20 -7 20 -115 0 -112 -1
-115 -22 -118 -21 -3 -23 0 -23 47 l0 51 -55 0 -55 0 0 -50 c0 -43 -3 -50 -20
-50 -19 0 -20 7 -20 120 0 113 1 120 20 120 17 0 20 -7 20 -50z m406 24 c24
-24 26 -30 22 -105 -4 -99 -14 -109 -107 -109 -92 0 -101 10 -101 121 0 107
11 119 103 119 49 0 62 -4 83 -26z m264 6 c0 -18 -7 -20 -59 -20 -61 0 -89
-16 -77 -45 4 -11 20 -15 58 -15 70 0 81 -9 82 -62 2 -68 -12 -78 -105 -78
-72 0 -79 2 -79 20 0 18 7 20 70 20 l70 0 0 30 c0 30 0 30 -60 30 -67 0 -80
12 -80 74 0 54 20 66 106 66 67 0 74 -2 74 -20z m240 0 c0 -16 -8 -19 -62 -22
-60 -3 -63 -4 -66 -30 -3 -28 -3 -28 55 -28 69 0 83 -10 83 -63 0 -69 -10 -77
-100 -77 -73 0 -80 2 -80 20 0 17 8 19 68 22 64 3 67 4 67 28 0 23 -4 25 -55
28 -30 2 -60 8 -67 14 -16 13 -17 100 -1 116 7 7 42 12 85 12 66 0 73 -2 73
-20z m261 -95 c26 -60 48 -113 48 -117 1 -5 -10 -8 -23 -8 -20 0 -28 12 -56
85 -18 47 -36 88 -40 90 -3 2 -14 -16 -23 -41 l-16 -44 23 0 c15 0 26 -7 29
-20 4 -17 0 -20 -33 -20 -32 0 -39 -4 -44 -25 -5 -19 -13 -25 -32 -25 -17 0
-24 4 -21 13 93 234 90 229 121 225 15 -2 31 -29 67 -113z m149 -5 c0 -113 -1
-120 -20 -120 -19 0 -20 7 -20 120 0 113 1 120 20 120 19 0 20 -7 20 -120z
m177 33 l48 -88 5 85 c5 77 7 85 25 85 18 0 20 -8 23 -95 4 -124 0 -140 -38
-140 -26 0 -34 9 -77 85 l-48 85 -5 -83 c-5 -76 -7 -82 -27 -85 -23 -3 -23 -2
-23 105 0 115 6 133 46 133 18 0 33 -18 71 -87z m-2318 -338 c0 -5 -6 1 -14
15 -8 14 -14 30 -14 35 0 6 6 -1 14 -15 8 -14 14 -29 14 -35z m112 18 c11 20
22 37 24 37 5 0 -32 -78 -41 -88 -1 -2 -11 13 -22 35 l-20 38 -18 -38 c-17
-35 -34 -49 -34 -27 0 6 4 10 8 10 5 0 16 17 26 37 l18 38 20 -40 21 -39 18
37z m192 30 c-38 -3 -53 -8 -53 -19 0 -10 14 -15 48 -16 l47 -2 -47 -3 c-69
-6 -65 -31 5 -36 l52 -3 -57 -2 -58 -2 0 45 0 45 58 -2 57 -2 -52 -3z m267
-38 l0 -45 -55 0 -55 0 0 45 0 45 55 0 55 0 0 -45z m348 22 c2 -10 1 -29 -2
-43 -6 -21 -12 -24 -56 -24 l-50 0 0 46 0 45 52 -3 c42 -2 54 -7 56 -21z m170
16 c-34 -3 -48 -8 -48 -19 0 -10 13 -15 43 -16 l42 -1 -42 -4 c-64 -6 -57 -31
10 -36 l52 -3 -57 -2 -58 -2 0 45 0 45 53 -2 52 -2 -47 -3z m202 -55 c0 -19
21 -5 45 29 14 21 25 34 25 30 0 -8 -51 -87 -56 -87 -2 0 -17 21 -34 48 -25
37 -26 41 -6 17 14 -16 26 -33 26 -37z"/>
<path d="M282 2968 c-9 -9 -12 -85 -12 -280 l0 -268 565 0 565 0 0 263 c0 243
-1 265 -18 280 -17 15 -70 17 -553 17 -403 0 -538 -3 -547 -12z m608 -53 c36
-19 50 -43 50 -88 0 -105 -151 -141 -202 -47 -51 95 52 187 152 135z m-324
-87 c-4 -34 -10 -66 -12 -70 -3 -4 -25 -8 -49 -8 -52 0 -62 13 -65 80 -1 25
-1 48 -1 53 1 4 31 7 67 7 l67 0 -7 -62z m602 5 c-3 -41 -6 -48 -25 -51 -13
-2 -23 1 -23 7 0 6 5 11 10 11 6 0 10 18 10 40 0 30 4 40 16 40 12 0 14 -10
12 -47z m72 31 c0 -10 -6 -14 -15 -10 -21 8 -19 -3 6 -22 28 -23 16 -52 -22
-52 -34 0 -40 20 -6 21 l22 0 -22 16 c-25 17 -31 48 -10 56 25 11 47 6 47 -9z
m-767 -201 c3 -5 -5 -8 -18 -8 -13 0 -21 3 -18 8 2 4 10 7 18 7 8 0 16 -3 18
-7z m90 0 c3 -5 -5 -8 -18 -8 -13 0 -21 3 -18 8 2 4 10 7 18 7 8 0 16 -3 18
-7z m290 -10 c3 -5 -5 -8 -18 -8 -13 0 -21 3 -18 8 2 4 10 7 18 7 8 0 16 -3
18 -7z m374 -18 c40 -24 43 -28 43 -70 0 -40 -4 -47 -37 -70 -39 -26 -68 -32
-77 -16 -4 5 3 7 14 4 10 -3 35 5 55 17 31 19 35 26 35 64 0 39 -3 44 -40 65
-42 23 -60 20 -102 -17 -10 -8 -18 -11 -18 -6 0 9 66 53 79 54 2 0 24 -11 48
-25z m-717 5 c0 -5 -4 -10 -10 -10 -5 0 -10 5 -10 10 0 6 5 10 10 10 6 0 10
-4 10 -10z m409 -26 c14 -12 -19 -1 -35 12 -18 14 -18 14 6 3 14 -6 27 -13 29
-15z m-151 2 c-21 -16 -25 -85 -5 -105 10 -10 9 -11 -5 -6 -14 6 -18 19 -18
56 0 35 5 51 18 58 24 15 30 13 10 -3z m-285 -8 c-2 -5 -13 -8 -24 -8 -11 0
-17 -5 -14 -10 4 -6 12 -7 18 -4 7 4 6 1 -2 -7 -10 -11 -15 -11 -18 -1 -3 6
-11 12 -19 12 -11 0 -12 3 -3 13 12 13 70 17 62 5z m87 0 c0 -16 -13 -38 -22
-38 -6 0 -5 6 2 15 10 13 9 15 -8 15 -12 0 -23 3 -25 8 -3 4 8 7 24 7 16 0 29
-3 29 -7z m586 -94 c-6 -15 -42 -19 -50 -5 -3 4 6 6 19 3 24 -4 25 -2 27 44 1
45 2 46 5 10 3 -21 2 -44 -1 -52z m68 77 c3 -4 -6 -6 -19 -3 -15 2 -25 0 -25
-7 0 -6 8 -11 18 -11 9 0 24 -5 32 -10 12 -8 13 -11 2 -22 -11 -11 -13 -10
-10 1 2 8 -6 17 -17 19 -27 5 -39 18 -31 31 8 13 43 15 50 2z m-707 -17 c8
-21 -13 -42 -28 -27 -13 13 -5 43 11 43 6 0 13 -7 17 -16z m285 4 c-9 -9 -9
-15 1 -27 11 -14 10 -14 -6 -2 -13 10 -15 17 -6 27 6 8 14 14 17 14 3 0 1 -5
-6 -12z m28 -35 c-11 -17 -11 -17 -6 0 3 10 7 26 7 35 1 15 2 15 6 0 2 -10 -1
-25 -7 -35z m49 33 c9 -10 7 -17 -6 -27 -16 -12 -17 -12 -6 2 10 12 10 18 1
27 -7 7 -9 12 -6 12 3 0 11 -6 17 -14z m-439 -26 c13 21 18 8 6 -16 -11 -20
-11 -20 -36 4 -23 22 -24 23 -2 11 19 -12 24 -12 32 1z m120 1 c0 -5 6 -11 14
-13 11 -2 11 -6 2 -14 -9 -8 -15 -5 -23 13 -6 12 -7 23 -2 23 5 0 9 -4 9 -9z
m625 -11 c3 -5 1 -10 -4 -10 -6 0 -11 5 -11 10 0 6 2 10 4 10 3 0 8 -4 11 -10z
m-666 -22 c9 13 20 20 24 16 4 -4 -2 -14 -14 -22 -11 -8 -18 -19 -16 -26 3 -6
-3 -12 -13 -12 -10 0 -17 3 -14 7 7 13 -8 39 -23 39 -8 0 -11 5 -7 12 5 8 13
4 26 -13 l20 -23 17 22z m401 -3 c0 -2 -10 -9 -22 -15 -22 -11 -22 -10 -4 4
21 17 26 19 26 11z m-75 -37 c5 4 5 1 1 -5 -6 -10 -14 -10 -37 2 -16 9 -29 18
-29 21 0 2 13 -2 29 -10 16 -9 32 -12 36 -8z"/>
<path d="M467 2840 c3 -13 14 -20 29 -20 15 0 24 -6 24 -16 0 -12 -7 -15 -25
-12 -14 3 -25 1 -25 -3 0 -5 14 -9 30 -9 17 0 30 4 30 9 0 5 3 16 6 25 5 13
-1 16 -25 16 -41 0 -40 18 2 23 28 3 27 4 -10 5 -37 2 -41 0 -36 -18z"/>
<path d="M270 2322 c0 -21 5 -43 12 -50 9 -9 145 -12 549 -12 596 0 569 -3
569 66 l0 34 -565 0 -565 0 0 -38z m574 12 c21 -8 21 -40 0 -48 -21 -8 -34 1
-34 23 0 28 9 34 34 25z"/>
<path d="M744 2173 c-7 -31 -45 -105 -70 -140 l-16 -23 175 0 176 0 -35 52
c-19 28 -40 71 -47 95 l-11 43 -83 0 c-82 0 -83 0 -89 -27z"/>
<path d="M1870 2550 l0 -80 43 0 c24 0 48 5 55 12 7 7 12 38 12 70 0 65 -12
78 -74 78 l-36 0 0 -80z"/>
<path d="M3448 2624 c-15 -5 -18 -17 -18 -74 0 -76 4 -80 71 -80 34 0 41 4 50
28 10 26 7 107 -4 118 -8 8 -79 13 -99 8z"/>
<path d="M2820 2275 c0 -11 12 -15 45 -15 33 0 45 4 45 15 0 11 -12 15 -45 15
-33 0 -45 -4 -45 -15z"/>
<path d="M2820 2235 c0 -11 12 -15 45 -15 33 0 45 4 45 15 0 11 -12 15 -45 15
-33 0 -45 -4 -45 -15z"/>
<path d="M3170 2254 l0 -35 43 3 c39 3 42 5 45 36 3 32 3 32 -42 32 -46 0 -46
0 -46 -36z"/>
</g>
</svg>
